<?xml version="1.0" encoding="utf-8"?>
<!-- Generator: Adobe Illustrator 23.0.1, SVG Export Plug-In . SVG Version: 6.00 Build 0)  -->
<svg version="1.1" id="Layer_1" xmlns="http://www.w3.org/2000/svg" xmlns:xlink="http://www.w3.org/1999/xlink" x="0px" y="0px"
	 viewBox="0 0 1005 982.7" style="enable-background:new 0 0 1005 982.7;" xml:space="preserve">
<style type="text/css">
	.st0{fill:#FFFFFF;}
</style>
<path class="st0" d="M1004.7,485.5c-2.2-33.2-13.6-57.9-22.7-77.7c-12-26.1-18.1-28.9-28.3-56.1c-4.2-11.2-7.4-23-13.6-46.5
	c-11.3-42.4-9.7-44-15.3-60.1c-4.3-12.3-13.2-37.6-32.9-61.8c-18.6-23-38.6-34.9-62.9-49.3c-37.2-22.1-49.1-20.1-73.1-41.4
	c-18.9-16.8-14-20.2-32.3-38c-6.7-6.5-48-45.5-104.6-48.2c-4.6-0.2-22,1.8-57,5.7c-41.8,4.8-45.5,6.3-59,6
	c-31-0.8-32.8-9.5-68.2-14.7c-20-3-52.8-7.8-88.8,5.3c-9.6,3.5-35.3,13.2-56.3,37.4c-2.2,2.5-2.3,2.9-4.9,6
	c-10.9,13.3-18.1,24.4-43.3,44.2c-2.8,2.2-13,9.4-24.6,15c-16.1,7.7-21.9,7.7-41,15.1c-24.7,9.5-54,29.8-76.3,56.6
	c-28.7,34.6-37.5,71.9-40.3,86.5c-5.5,28.6,0,37.2-8.2,66.3c-9.4,33-19.5,32.7-34.9,72.6c-7.9,20.4-17.4,45.8-16.2,78.5
	c0.8,22.3,6.3,38.5,11.9,54.7c17.4,50.2,36.3,56,47.9,98.1c8,29-0.7,27.4,6.8,60.9c3.3,14.8,13.6,58.6,47.3,96.1
	c26.1,29.1,37.5,22.4,81.6,63.5c23.8,22.2,19.4,23.7,42.5,44.8c33.5,30.6,60.4,55.2,99.8,64.6c23.3,5.6,43.7,3.5,84.5-0.6
	c43.1-4.3,55-11.6,84.5-6.8c25.4,4.2,24.4,10.9,55,16.4c16.3,3,41.5,7.3,72.6,0c29.2-6.9,49-20.6,55.6-25.5
	c9.9-7.3,10.3-9.6,37.4-38.6c24.9-26.6,37.6-40,49.9-49.3c21.6-16.3,24-10.9,52.2-28.3c22-13.6,51.7-32,71.4-66.3
	c11.1-19.2,16.7-39.6,20.4-52.7c6.4-22.9,4.2-26,9.6-43.1c6.5-20.3,12.5-25.2,32.9-60.1c18-30.7,26.9-46.1,32.3-62.9
	C1006.4,519.8,1005.2,493.1,1004.7,485.5z M497,912.6C264.3,912.6,75.7,724,75.7,491.4S264.3,70.1,497,70.1s421.3,188.6,421.3,421.3
	S729.6,912.6,497,912.6z"/>
<g>
	<path class="st0" d="M728.4,282.5c5-5.9,7.5-11.7,7.5-17.4c0-1.8-0.3-3-1-3.6c-0.6-0.6-1.7-1-3.2-1c-4.7,0-9.8,2.2-15.4,6.7
		c-5.6,4.5-10.7,10.1-15.4,16.9c-4.7,6.8-8.2,13.6-10.4,20.4c5.8-0.6,12.3-3,19.5-7C717.3,293.4,723.4,288.4,728.4,282.5z"/>
	<path class="st0" d="M466.7,317.4c0,5.8,1.6,11,4.9,15.4c3.2,4.5,7.7,6.7,13.4,6.7c3.2,0,6.3-0.8,9.1-2.4c2.8-1.6,5-4,6.4-7
		c-6.3-1.3-12.1-3.8-17.5-7.4c-5.3-3.6-9.6-7.6-12.9-11.8C467.8,311.3,466.7,313.5,466.7,317.4z"/>
	<path class="st0" d="M497.5,80.8C271.4,80.8,88,264.2,88,490.4s183.4,409.5,409.5,409.5s409.5-183.4,409.5-409.5
		S723.7,80.8,497.5,80.8z M585.5,216.2c4.1-2.8,8.5-4.3,13.2-4.3c7,0,10.4,3,10.4,9c0,3.4-1.9,6.7-5.6,9.8
		c-3.7,3.2-7.8,4.7-12.1,4.7c-3.4,0-6.3-0.8-8.6-2.4c-2.3-1.6-3.5-4-3.5-7C579.3,222.3,581.4,219.1,585.5,216.2z M441,216.2
		c4.1-2.8,8.5-4.3,13.2-4.3c7,0,10.4,3,10.4,9c0,3.4-1.9,6.7-5.6,9.8c-3.7,3.2-7.8,4.7-12.1,4.7c-3.4,0-6.3-0.8-8.6-2.4
		c-2.3-1.6-3.5-4-3.5-7C434.9,222.3,436.9,219.1,441,216.2z M469.3,295.3c10.4-10.7,18.2-21.8,23.6-33.3v-2.4c0-6,1-10.4,3-13.4
		c2-2.9,4.7-4.4,7.9-4.4c3.6,0,5.5,1.6,5.8,4.9c0,0.8-0.2,2-0.6,3.6c-0.4,1.6-0.6,3.3-0.6,5.1c0,3.1,0.5,6.3,1.5,9.7
		c1,3.4,2.5,8,4.6,13.8c2.6,7.1,4.6,13.3,6,18.5c1.4,5.2,2.1,10.4,2.1,15.8c0,2.8-0.3,6.1-1,10c8.5-2.1,16.1-8.1,22.9-17.8
		c0.7-2.6,1.5-5.4,2.5-8.3c3.6-11.1,8.3-20.8,13.8-29.3c5.6-8.4,11.2-12.6,16.9-12.6c2.1,0,3.8,0.6,5.2,1.8c1.4,1.2,2.1,3,2.1,5.2
		c0,1.5-0.6,3.4-1.9,5.9c-1.3,2.5-3.4,6.1-6.3,10.8c-5.2,8.6-9.3,16.1-12.3,22.7c-3,6.6-4.5,12.7-4.5,18.6c0,5,0.9,8.4,2.7,10.2
		c1.8,1.8,4.5,2.7,8.3,2.7c10.7,0,21.4-8.7,32-26.2c0.5-2.4,1.1-5,1.7-7.7c2.4-9.8,5.7-20.2,9.7-31.2c-4.2-0.8-7-1.5-8.5-2.2v-7.5
		c3.9,0.5,7.8,0.9,11.7,1.2c7.3-18.3,15.1-34,23.4-47.1c8.3-13.1,15.1-19.7,20.3-19.7c1.8,0,3.4,0.6,4.7,1.9c1.4,1.3,2.1,3,2.1,5.1
		c0,2.6-1.1,6.1-3.4,10.4c-2.3,4.4-6,11-11.2,19.9c-7.1,12-12.7,22-16.8,30.1c18.6,0,33.4-0.6,44.4-1.7v8
		c-19.1,1.9-35.4,2.9-48.8,2.9c-8.4,19.9-12.6,36.2-12.6,48.8c0,6.6,1.1,11.3,3.2,14.1c2.1,2.8,5.4,4.1,10,4.1
		c8.1,0,16.4-3.7,24.9-11c4-3.4,7.7-7.4,11.2-12c1-7.8,4-16.1,9.1-24.9c6.3-10.9,14.4-20.1,24.3-27.4c9.9-7.4,19.6-11,29.1-11
		c5,0,9.2,1.3,12.6,3.8c3.4,2.5,5.1,6.7,5.1,12.5c0,7.8-3,15.1-9,22c-6,6.9-13.7,12.5-23.2,16.9s-19.1,7.1-29,8.3
		c-0.3,1.6-0.5,3.5-0.5,5.6c0,4.2,1.2,8.4,3.5,12.6c2.3,4.2,7.4,6.3,15.2,6.3c9.9,0,20-4,30.2-12c10.3-8,18.6-18,24.9-30l4.9,3.9
		c-6.5,14.6-15.7,26.3-27.8,35.2c-12.1,8.9-24.6,13.4-37.5,13.4c-10.2,0-18.1-2.8-23.8-8.3c-4.8-4.7-7.6-10.5-8.3-17.4
		c-3.4,4.4-7.1,8.4-11.1,12c-10.5,9.5-21.5,14.2-32.8,14.2c-7.4,0-13.3-2.1-17.5-6.4c-4.2-4.3-6.3-10.6-6.3-19.1c0-0.5,0-1.1,0-1.7
		c-3.1,4.3-6.4,8.1-10,11.4c-8.7,7.9-18.1,11.9-28.2,11.9c-6.8,0-12.1-2-15.8-6.1s-5.6-9.2-5.6-15.5c0-1.7,0.1-3.5,0.4-5.5
		c-0.7,0.8-1.4,1.6-2.2,2.3c-5.7,5.7-12.5,9.1-20.3,10.2c-2.6,6.5-6.8,11.4-12.6,14.7c-5.8,3.3-12.5,5-20.2,5
		c-11.3,0-19.7-3.3-25.1-9.8c-3.7-4.5-6.2-9.6-7.3-15.3c-2.4,3-4.9,5.7-7.6,8.2c-8.7,7.9-18.1,11.9-28.2,11.9
		c-6.8,0-12.1-2-15.8-6.1s-5.6-9.2-5.6-15.5c0-6.5,1.8-15.3,5.5-26.3c3.6-11.1,8.3-20.8,13.8-29.3c5.6-8.4,11.2-12.6,16.9-12.6
		c2.1,0,3.8,0.6,5.2,1.8c1.4,1.2,2.1,3,2.1,5.2c0,1.5-0.6,3.4-1.9,5.9c-1.3,2.5-3.4,6.1-6.3,10.8c-5.2,8.6-9.3,16.1-12.3,22.7
		c-3,6.6-4.5,12.7-4.5,18.6c0,5,0.9,8.4,2.7,10.2c1.8,1.8,4.5,2.7,8.3,2.7c9,0,18-6.2,27-18.6c0.3-5.1,1.4-8.7,3.3-10.9
		c1.9-2.2,4.1-3.9,6.5-5.1 M256.3,186.5c4.3-6.8,10-12.4,17.2-16.9c7.2-4.5,15-6.7,23.4-6.7c10.8,0,19.1,4,24.9,11.9
		c5.7,7.9,8.6,18.9,8.6,33c0,10.8-1.5,22.2-4.4,34c-2.9,11.8-7.2,26.9-12.9,45.2c-4.5,14.2-7.8,25.1-9.7,32.7
		c-1.9,7.5-2.9,14.2-2.9,20c0,2.9,0.4,5,1.2,6.3c0.8,1.3,2.3,1.9,4.6,1.9c9.1,0,20.4-8,34-24c13.6-16,25.5-35,35.6-57.1
		c10.1-22,15.2-41.3,15.2-57.8c0-15.7-5.4-25.3-16.3-28.9c2.1-4.5,4.8-8,8-10.3c3.2-2.3,6.3-3.5,9.2-3.5s5.8,1.3,8.6,3.9
		c2.8,2.6,5.1,6.3,6.9,11c1.8,4.8,2.7,10.3,2.7,16.6c0,17.2-6.2,38.7-18.6,64.6c-12.4,25.9-27.2,48.4-44.4,67.6
		c-17.2,19.2-32.7,28.8-46.3,28.8c-5.7,0-11-1.6-15.9-4.9c-4.9-3.2-7.4-8.8-7.4-16.8c0-4.5,0.8-9.8,2.4-15.9
		c1.6-6.1,4.2-14.7,7.8-25.9c6-18.5,10.6-34.9,14-49.3c3.3-14.4,5-29.1,5-44.2c0-9.4-1.1-16.6-3.2-21.5c-2.1-4.9-6-7.4-11.7-7.4
		c-5.2,0-9.5,2-13,5.9c-3.5,4-6.1,8.8-7.8,14.6c-1.7,5.7-2.5,11.3-2.5,16.6c0,5.8,1.2,11.1,3.6,15.8c-7.6,0-13.3-1.8-17-5.3
		c-3.7-3.6-5.6-8.3-5.6-14.1C249.8,200,252,193.3,256.3,186.5z M323,442.6c0,3.4-1.9,6.7-5.6,9.8c-3.7,3.2-7.8,4.7-12.1,4.7
		c-3.4,0-6.3-0.8-8.6-2.4c-2.3-1.6-3.5-4-3.5-7c0-3.7,2.1-7,6.2-9.8c4.1-2.8,8.5-4.3,13.2-4.3C319.5,433.6,323,436.6,323,442.6z
		 M205.6,551.7c-17.2,19.2-32.7,28.8-46.3,28.8c-5.7,0-11-1.6-15.9-4.9c-4.9-3.2-7.4-8.8-7.4-16.8c0-4.5,0.8-9.8,2.4-15.9
		c1.6-6.1,4.2-14.7,7.8-25.9c6-18.5,10.6-34.9,14-49.3c3.3-14.4,5-29.1,5-44.2c0-9.4-1.1-16.6-3.2-21.5c-2.1-4.9-6-7.4-11.7-7.4
		c-5.2,0-9.5,2-13,5.9c-3.5,4-6.1,8.8-7.8,14.6c-1.7,5.7-2.5,11.3-2.5,16.6c0,5.8,1.2,11.1,3.6,15.8c-7.6,0-13.3-1.8-17-5.3
		c-3.7-3.6-5.6-8.3-5.6-14.1c0-6.6,2.1-13.4,6.4-20.2c4.3-6.8,10-12.4,17.2-16.9c7.2-4.5,15-6.7,23.4-6.7c10.8,0,19.1,4,24.9,11.9
		c5.7,7.9,8.6,18.9,8.6,33c0,10.8-1.5,22.2-4.4,34c-2.9,11.8-7.2,26.9-12.9,45.2c-4.5,14.2-7.8,25.1-9.7,32.7
		c-1.9,7.5-2.9,14.2-2.9,20c0,2.9,0.4,5,1.2,6.3c0.8,1.3,2.3,1.9,4.6,1.9c9.1,0,20.4-8,34-24c13.6-16,25.5-35,35.6-57.1
		c10.1-22,15.2-41.3,15.2-57.8c0-15.7-5.4-25.3-16.3-28.9c2.1-4.5,4.8-8,8-10.3c3.2-2.3,6.3-3.5,9.2-3.5s5.8,1.3,8.6,3.9
		c2.8,2.6,5.1,6.3,6.9,11c1.8,4.8,2.7,10.3,2.7,16.6c0,17.2-6.2,38.7-18.6,64.6C237.6,510,222.8,532.5,205.6,551.7z M383.1,715.2
		c5.6,8.7,8.4,17.9,8.4,27.4c0,10.2-3,20.1-9,29.6c-6,9.6-14.2,17.4-24.8,23.4c-10.5,6.1-22.3,9.1-35.5,9.1
		c-10.2,0-18.6-1.8-25.1-5.3c-6.6-3.6-11.4-8.1-14.4-13.7c-3.1-5.6-4.6-11.3-4.6-17.1c0-7,1.9-13.2,5.7-18.7
		c3.8-5.5,9.1-8.3,15.9-8.3c2.3,0,5.1,0.3,8.5,1c-2.9,2.4-5.3,5.9-7.3,10.3c-1.9,4.5-2.9,8.9-2.9,13.2c0,4.5,1.1,8.9,3.4,13.1
		c2.3,4.2,5.4,7.6,9.3,10.3c4,2.7,8.5,4,13.5,4c6.3,0,12.4-2.1,18.3-6.4c5.9-4.3,10.7-10.2,14.4-17.8c3.7-7.6,5.6-16.1,5.6-25.5
		c0-10.4-2.5-19.7-7.6-27.9c-5.1-8.3-13.5-13.9-25.1-17c8.6-3.7,16.2-8.9,22.8-15.5c6.6-6.6,11.8-13.8,15.4-21.5
		c3.6-7.7,5.5-14.9,5.5-21.7c0-7.3-2.1-12.7-6.3-16.1c-4.2-3.5-9.4-5.2-15.5-5.2c-7.1,0-13.4,2.1-18.8,6.3
		c-5.4,4.2-8.1,9.8-8.1,16.8c0,5.2,1.6,10.8,4.9,16.8c-1,2.1-2.6,4-5,5.8c-2.3,1.8-4.7,2.7-6.9,2.7c-3.4,0-6.2-2.2-8.3-6.7
		c-2.1-4.5-3.2-9.3-3.2-14.7c0-7.4,2.3-14,6.9-19.5c4.6-5.6,10.6-9.9,18-12.9c7.4-3,15.2-4.5,23.4-4.5c7.1,0,13.8,1.3,20.2,4
		c6.3,2.7,11.4,6.6,15.3,11.8c3.9,5.2,5.8,11.3,5.8,18.5c0,6.6-1.7,13.5-5,20.6c-3.3,7.1-7.9,13.6-13.8,19.4
		c-5.9,5.8-12.6,10.1-20,12.9C368.8,700,377.5,706.4,383.1,715.2z M524.6,621c-1.8-2.1-5.1-3.2-10-3.2c-9.6,0-18.5,4.2-27,12.5
		c-8.4,8.3-15.8,19.1-22.1,32.2c-6.3,13.1-11.3,27-14.8,41.8c5.5-4.2,11.8-7.4,18.8-9.7c7-2.3,14.2-3.4,21.5-3.4
		c13.9,0,25.5,4.1,34.7,12.3c9.2,8.2,13.8,20.3,13.8,36.3c0,12.1-2.8,23.2-8.3,33c-5.5,9.9-13.3,17.7-23.3,23.4
		c-10,5.7-21.5,8.6-34.5,8.6c-18.5,0-32.1-5.6-41-16.9c-8.9-11.3-13.4-26.3-13.4-45c0-18.6,4-38.4,12-59.5c8-21,19.3-38.7,34-53.1
		c14.6-14.3,31.4-21.5,50.1-21.5c7.8,0,14,1.3,18.8,3.9c4.8,2.6,7.2,6.5,7.2,11.7c0,3.1-1.1,5.7-3.2,8c-2.1,2.3-5.9,4.1-11.4,5.6
		c0.3-3.2,0.5-5.9,0.5-8C527.3,626.1,526.4,623.1,524.6,621z M695.2,736.2c-8.2,20-19.3,36.4-33.4,49.3
		c-14.1,12.9-29.6,19.3-46.6,19.3c-16.5,0-29.1-6.2-37.9-18.6s-13.1-28.2-13.1-47.5c0-18.5,3.8-37.8,11.3-58.2
		c7.5-20.3,18.2-37.4,32.1-51.1c13.8-13.8,29.6-20.6,47.2-20.6c16,0,28.8,5.9,38.4,17.7c9.6,11.8,14.3,28.4,14.3,49.8
		C707.4,696.2,703.3,716.2,695.2,736.2z M849.1,556.7c-12.1,8.9-24.6,13.4-37.5,13.4c-10.2,0-18.1-2.8-23.8-8.3
		c-4.3-4.1-6.9-9.2-8-15c-10.2,13.3-21.2,19.9-32.8,19.9c-7.1,0-12.5-2.3-16.3-7c-3.7-4.7-5.7-11.1-5.8-19.2
		c-11.8,17.5-24.4,26.2-37.6,26.2c-7.4,0-13-2.4-16.8-7.3c-3.7-4.9-5.6-11.4-5.6-19.7c0-0.2,0-0.4,0-0.6c-5,6.8-10.9,12.6-17.6,17.6
		c-12.1,8.9-24.6,13.4-37.5,13.4c-10.2,0-18.1-2.8-23.8-8.3c-4.8-4.7-7.6-10.5-8.3-17.4c-5.7,6.9-11.7,12.4-18.3,16.3
		c-6.6,4-12.8,5.9-18.8,5.9c-7.1,0-11.7-2.5-13.7-7.4c-2-4.9-3-11.5-3-19.8c-5.5,8.4-10.7,15.1-15.5,19.9c-4.9,4.9-10,7.3-15.3,7.3
		c-5.3,0-9.8-2.5-13.4-7.5c-3.6-5-5.3-10.9-5.3-17.7c0-0.7,0-1.4,0.1-2.2c-4.4,6.5-9.4,12.2-14.9,17.1
		c-10.5,9.5-21.5,14.2-32.8,14.2c-7.4,0-13.3-2.1-17.5-6.4c-4.2-4.3-6.3-10.6-6.3-19.1c0-0.9,0-1.9,0.1-2.9c-0.3,0.3-0.5,0.6-0.8,1
		c-5.8,6.6-12.3,12.1-19.5,16.3c-7.2,4.2-14.3,6.3-21.2,6.3c-6,0-10.8-1.6-14.6-4.7c-3.7-3.2-5.6-7.4-5.6-12.7
		c0-3.1,0.6-6.4,1.8-10.1s3-8.1,5.5-13.2c2.1-4.5,3.7-8.4,4.9-11.5c1.1-3.2,1.7-5.9,1.7-8.4c0-6.2-4-11.3-12.1-15.5
		c-3.2,8.1-7,16.3-11.3,24.5c-4,7.8-7.7,14.4-10.9,19.9c-4.6,8.5-9.9,15.4-15.9,20.9c-8.7,7.9-18.1,11.9-28.2,11.9
		c-6.8,0-12.1-2-15.8-6.1s-5.6-9.2-5.6-15.5c0-6.5,1.8-15.3,5.5-26.3c3.6-11.1,8.3-20.8,13.8-29.3c5.6-8.4,11.2-12.6,16.9-12.6
		c2.1,0,3.8,0.6,5.2,1.8c1.4,1.2,2.1,3,2.1,5.2c0,1.5-0.6,3.4-1.9,5.9c-1.3,2.5-3.4,6.1-6.3,10.8c-5.2,8.6-9.3,16.1-12.3,22.7
		c-3,6.6-4.5,12.7-4.5,18.6c0,5,0.9,8.4,2.7,10.2c1.8,1.8,4.5,2.7,8.3,2.7c10.8,0,20.9-9,31.6-26.6l0.2-0.4
		c7.4-13.3,14-27.9,19.7-44c-1.6-1.6-2.4-3.8-2.4-6.6c0-4.2,1.3-8.2,3.9-11.9c2.6-3.7,5.1-5.6,7.5-5.6c1.6,0,3,1,4,2.9
		c1.1,1.9,1.6,3.6,1.6,4.9c0,0.6-0.4,2.1-1.1,4.2s-1.3,3.8-1.6,4.7c0.2,1.1,0.8,2.2,1.9,3.3c1.1,1.1,3.2,2.5,6.3,4.5
		c5.7,3.7,10.1,7.3,13.2,10.8c3.2,3.5,4.7,8.1,4.7,14c0,3.6-0.6,7.1-1.8,10.7c-1.2,3.6-3,7.9-5.5,12.9c-3.6,7.1-5.3,12.2-5.3,15.3
		c0,3.7,2,5.6,6.1,5.6c4.9,0,10.2-1.9,15.9-5.8c5.7-3.9,11-8.6,15.8-14.2c2.3-2.7,4.3-5.3,6.1-7.9c0.3-1.5,0.7-3.1,1.1-4.8
		c2.4-9.8,5.7-20.2,9.7-31.2c-4.2-0.8-7-1.5-8.5-2.2v-7.5c3.9,0.5,7.8,0.9,11.7,1.2c7.3-18.3,15.1-34,23.4-47.1
		c8.3-13.1,15.1-19.7,20.3-19.7c1.8,0,3.4,0.6,4.7,1.9c1.4,1.3,2.1,3,2.1,5.1c0,2.6-1.1,6.1-3.4,10.4c-2.3,4.4-6,11-11.2,19.9
		c-7.1,12-12.7,22-16.8,30.1c18.6,0,33.4-0.6,44.4-1.7v8c-19.1,1.9-35.4,2.9-48.8,2.9c-8.4,19.9-12.6,36.2-12.6,48.8
		c0,6.6,1.1,11.3,3.2,14.1c2.1,2.8,5.4,4.1,10,4.1c8.1,0,16.4-3.7,24.9-11c6.1-5.3,11.6-11.9,16.5-19.8c0.6-2.4,1.2-5,2-7.7
		c2.6-8.7,5.6-16.3,9.1-22.8c3.5-6.5,6.5-9.7,9.1-9.7c1.1,0,2.9,0.6,5.2,1.8c2.3,1.2,4.4,2.7,6.2,4.5c-3.4,5-6.9,12.2-10.6,21.6
		c-3.6,9.4-5.5,17.5-5.5,24.3c0,3.1,0.4,6.3,1.3,9.6c0.9,3.3,2.9,5,5.9,5c6,0,13.2-6.7,21.5-20c8.3-13.4,15.5-26.9,21.5-40.7
		c9.7,1.6,14.6,4.4,14.6,8.3c0,0.3-1,2.7-2.9,7c-3.4,7.9-6.3,15.3-8.7,22.1c-2.4,6.8-3.6,12.7-3.6,17.7c0,5.7,2.2,8.5,6.6,8.5
		c3.4,0,7.5-1.6,12.3-4.7c4.8-3.2,9.7-7.7,14.7-13.6c1.1-1.3,2.1-2.6,3.1-3.9c1.1-7.6,4.1-15.7,9-24.2c6.3-10.9,14.4-20.1,24.3-27.4
		c9.9-7.4,19.6-11,29.1-11c5,0,9.2,1.3,12.6,3.8c3.4,2.5,5.1,6.7,5.1,12.5c0,7.8-3,15.1-9,22c-6,6.9-13.7,12.5-23.2,16.9
		s-19.1,7.1-29,8.3c-0.3,1.6-0.5,3.5-0.5,5.6c0,4.2,1.2,8.4,3.5,12.6c2.3,4.2,7.4,6.3,15.2,6.3c9.9,0,20-4,30.2-12
		c8.4-6.5,15.4-14.4,21.1-23.6c2.2-12,6.7-26.4,13.6-43.1c10.1-24.8,21.5-47,34.1-66.8c12.6-19.7,21.9-29.6,27.9-29.6
		c2.8,0,5.1,2.2,7.2,6.6c2,4.4,3,8.8,3,13.4c0,7.3-3,17.9-9,31.9c-6,14-14,28.3-24.2,42.7c-10.1,14.5-20.9,26.3-32.4,35.3
		c-1.8,10-2.7,18.1-2.7,24.3c0,11.2,3.5,16.8,10.4,16.8c5.2,0,10.6-3.1,16.3-9.2c5.7-6.2,10.8-13.9,15.5-23.3
		c2.9-15.9,8.9-34,18.1-54.4c9.1-20.4,18.7-37.9,28.7-52.6c10-14.6,17.5-22,22.7-22c2.9,0,5.4,2.2,7.4,6.7c2,4.5,3,9,3,13.7
		c0,7-2.5,16.6-7.5,29c-5,12.4-12,25.1-21,38c-9,13-19.2,24-30.7,33c-1.8,7.9-2.7,15.6-2.7,23.1c0,12,3.3,18,10,18
		c5.8,0,12-3.8,18.5-11.4c2.4-2.9,4.8-6,7-9.3c1-7.7,4-15.9,9.1-24.6c6.3-10.9,14.4-20.1,24.3-27.4c9.9-7.4,19.6-11,29.1-11
		c5,0,9.2,1.3,12.6,3.8c3.4,2.5,5.1,6.7,5.1,12.5c0,7.8-3,15.1-9,22c-6,6.9-13.7,12.5-23.2,16.9s-19.1,7.1-29,8.3
		c-0.3,1.6-0.5,3.5-0.5,5.6c0,4.2,1.2,8.4,3.5,12.6c2.3,4.2,7.4,6.3,15.2,6.3c9.9,0,20-4,30.2-12c10.3-8,18.6-18,24.9-30l4.9,3.9
		C870.4,536,861.1,547.8,849.1,556.7z"/>
	<path class="st0" d="M654.7,618.8c-13.4,0-25.2,6.9-35.2,20.8c-10,13.8-17.7,30.6-23.1,50.1c-5.3,19.6-8,37.3-8,53.2
		c0,15.4,2.7,27.6,8,36.7c5.3,9.1,12.7,13.6,22.1,13.6c11.7,0,22.6-6.8,32.9-20.3c10.3-13.5,18.5-30.2,24.6-50
		c6.2-19.8,9.2-38.5,9.2-56c0-14.7-2.5-26.4-7.4-35.1C673,623.1,665.3,618.8,654.7,618.8z"/>
	<path class="st0" d="M451.7,779.6c4.5,9.3,12.2,14,23.1,14c7.8,0,14.6-2.7,20.6-8c6-5.3,10.6-12.2,14-20.6c3.3-8.4,5-17.2,5-26.2
		c0-12-3-21-8.9-27c-5.9-6-13.8-9-23.7-9c-12.6,0-21.9,4.3-27.9,13c-6,8.7-9,19.5-9,32.7C444.9,759.9,447.2,770.3,451.7,779.6z"/>
	<path class="st0" d="M734.2,434.1c4.8-11,7.2-19.1,7.2-24.3c0-1.6-0.2-2.6-0.5-2.9c-2.1,0-6.3,4.9-12.6,14.8
		c-6.3,9.9-13,22.1-20,36.7s-12.7,28.7-17.1,42.5c8.4-8.9,16.5-19.5,24.3-31.8C723.2,456.7,729.4,445.1,734.2,434.1z"/>
	<path class="st0" d="M839.3,504.1c5-5.9,7.5-11.7,7.5-17.4c0-1.8-0.3-3-1-3.6c-0.6-0.6-1.7-1-3.2-1c-4.7,0-9.8,2.2-15.4,6.7
		c-5.6,4.5-10.7,10.1-15.4,16.9c-4.7,6.8-8.2,13.6-10.4,20.4c5.8-0.6,12.3-3,19.5-7C828.1,515,834.2,510,839.3,504.1z"/>
	<path class="st0" d="M789.5,441.6c3.9-9.5,5.8-16.9,5.8-22.1c0-1.5-0.1-2.4-0.2-2.9c-2.1,0-5.9,4.2-11.3,12.5
		c-5.4,8.3-11.2,19-17.4,32.1c-6.2,13-11.3,26.3-15.5,39.9c8.3-8.6,15.8-18.3,22.6-29C780.2,461.3,785.6,451.1,789.5,441.6z"/>
	<path class="st0" d="M637.5,504.1c5-5.9,7.5-11.7,7.5-17.4c0-1.8-0.3-3-1-3.6c-0.6-0.6-1.7-1-3.2-1c-4.7,0-9.8,2.2-15.4,6.7
		c-5.6,4.5-10.7,10.1-15.4,16.9c-4.7,6.8-8.2,13.6-10.4,20.4c5.8-0.6,12.3-3,19.5-7C626.3,515,632.4,510,637.5,504.1z"/>
	<path class="st0" d="M485.4,314.8c5,3.8,10.7,6.4,17,7.9c0.5-1.5,0.7-4,0.7-7.5c-0.2-5.2-0.7-10.3-1.7-15.3c-1-5-2.4-11.5-4.4-19.4
		l-2.2-8.7c-7.9,13.8-15,23.9-21.1,30.4C476.5,306.8,480.3,311,485.4,314.8z"/>
</g>
</svg>
