<?xml version="1.0" encoding="utf-8"?>
<!-- Generator: Adobe Illustrator 23.0.1, SVG Export Plug-In . SVG Version: 6.00 Build 0)  -->
<svg version="1.1" id="Layer_1" xmlns="http://www.w3.org/2000/svg" xmlns:xlink="http://www.w3.org/1999/xlink" x="0px" y="0px"
	 viewBox="0 0 1005 982.7" style="enable-background:new 0 0 1005 982.7;" xml:space="preserve">
<style type="text/css">
	.st0{fill:#FFFFFF;}
</style>
<image style="display:none;overflow:visible;" width="1262" height="1228" xlink:href="visite-virtuelle-360-mini-sf.png"  transform="matrix(0.834 0 0 0.834 -23.957 -23.8807)">
</image>
<path class="st0" d="M1004.7,485.5c-2.2-33.2-13.6-57.9-22.7-77.7c-12-26.1-18.1-28.9-28.3-56.1c-4.2-11.2-7.4-23-13.6-46.5
	c-11.3-42.4-9.7-44-15.3-60.1c-4.3-12.3-13.2-37.6-32.9-61.8c-18.6-23-38.6-34.9-62.9-49.3c-37.2-22.1-49.1-20.1-73.1-41.4
	c-18.9-16.8-14-20.2-32.3-38c-6.7-6.5-48-45.5-104.6-48.2c-4.6-0.2-22,1.8-57,5.7c-41.8,4.8-45.5,6.3-59,6
	c-31-0.8-32.8-9.5-68.2-14.7c-20-3-52.8-7.8-88.8,5.3c-9.6,3.5-35.3,13.2-56.3,37.4c-2.2,2.5-2.3,2.9-4.9,6
	c-10.9,13.3-18.1,24.4-43.3,44.2c-2.8,2.2-13,9.4-24.6,15c-16.1,7.7-21.9,7.7-41,15.1c-24.7,9.5-54,29.8-76.3,56.6
	c-28.7,34.6-37.5,71.9-40.3,86.5c-5.5,28.6,0,37.2-8.2,66.3c-9.4,33-19.5,32.7-34.9,72.6c-7.9,20.4-17.4,45.8-16.2,78.5
	c0.8,22.3,6.3,38.5,11.9,54.7c17.4,50.2,36.3,56,47.9,98.1c8,29-0.7,27.4,6.8,60.9c3.3,14.8,13.6,58.6,47.3,96.1
	c26.1,29.1,37.5,22.4,81.6,63.5c23.8,22.2,19.4,23.7,42.5,44.8c33.5,30.6,60.4,55.2,99.8,64.6c23.3,5.6,43.7,3.5,84.5-0.6
	c43.1-4.3,55-11.6,84.5-6.8c25.4,4.2,24.4,10.9,55,16.4c16.3,3,41.5,7.3,72.6,0c29.2-6.9,49-20.6,55.6-25.5
	c9.9-7.3,10.3-9.6,37.4-38.6c24.9-26.6,37.6-40,49.9-49.3c21.6-16.3,24-10.9,52.2-28.3c22-13.6,51.7-32,71.4-66.3
	c11.1-19.2,16.7-39.6,20.4-52.7c6.4-22.9,4.2-26,9.6-43.1c6.5-20.3,12.5-25.2,32.9-60.1c18-30.7,26.9-46.1,32.3-62.9
	C1006.4,519.8,1005.2,493.1,1004.7,485.5z M497,912.6C264.3,912.6,75.7,724,75.7,491.4S264.3,70.1,497,70.1s421.3,188.6,421.3,421.3
	S729.6,912.6,497,912.6z"/>
<g>
	<path class="st0" d="M537.2,539.8c0-21-5.2-36.7-15.5-47.2c-10.3-10.5-24.2-15.7-41.4-15.7c-22.1,0-38.4,7.6-48.9,22.7
		c-10.5,15.2-15.7,34.2-15.7,57.2c0,20.1,4,38.3,11.9,54.6c7.9,16.3,21.4,24.4,40.4,24.4c13.6,0,25.6-4.7,36.1-14
		c10.5-9.3,18.6-21.4,24.4-36.1C534.3,571,537.2,555.7,537.2,539.8z"/>
	<path class="st0" d="M396.6,773.6c-1.1,0-2.1,0.8-2.9,2.3c-0.8,1.6-1.2,3.4-1.2,5.6c0,2.2,0.5,4.4,1.4,6.7c0.9,2.3,2.3,4.1,4.2,5.5
		c1.6-3.6,2.3-7.2,2.3-11.1c0-2.9-0.3-5.2-1-6.8C398.7,774.4,397.8,773.6,396.6,773.6z"/>
	<path class="st0" d="M394,749.3c3.3-5.2,6-10.1,8.1-15c2.1-4.8,3.2-8.3,3.3-10.3c-1.1,0.4-3.1,2.6-5.8,6.5
		c-2.8,3.9-5.6,8.7-8.6,14.4c-2.9,5.7-5.3,11.3-7.2,17C387.3,758.7,390.7,754.5,394,749.3z"/>
	<path class="st0" d="M497,88.3c-222.6,0-403.1,180.5-403.1,403.1S274.4,894.5,497,894.5S900.1,714,900.1,491.4S719.6,88.3,497,88.3
		z M525.6,172.3c2.3-3.6,5.4-6.6,9.2-9c3.9-2.4,8-3.6,12.5-3.6c5.8,0,10.2,2.1,13.3,6.4c3.1,4.2,4.6,10.1,4.6,17.7
		c0,5.8-0.8,11.9-2.3,18.2c-1.6,6.3-3.9,14.4-6.9,24.2c-2.4,7.6-4.2,13.5-5.2,17.5c-1,4-1.6,7.6-1.6,10.7c0,1.6,0.2,2.7,0.7,3.4
		c0.4,0.7,1.3,1,2.5,1c4.9,0,10.9-4.3,18.2-12.9s13.6-18.8,19-30.5c5.4-11.8,8.1-22.1,8.1-30.9c0-8.4-2.9-13.6-8.7-15.5
		c1.1-2.4,2.6-4.3,4.3-5.5c1.7-1.3,3.4-1.9,4.9-1.9c1.6,0,3.1,0.7,4.6,2.1c1.5,1.4,2.8,3.4,3.7,5.9c1,2.6,1.4,5.5,1.4,8.9
		c0,9.2-3.3,20.7-9.9,34.6c-6.6,13.9-14.6,25.9-23.8,36.2c-9.2,10.3-17.5,15.4-24.8,15.4c-3,0-5.9-0.9-8.5-2.6c-2.6-1.7-4-4.7-4-9
		c0-2.4,0.4-5.3,1.3-8.5c0.9-3.3,2.3-7.9,4.2-13.8c3.2-9.9,5.7-18.7,7.5-26.4c1.8-7.7,2.7-15.6,2.7-23.7c0-5-0.6-8.9-1.7-11.5
		c-1.1-2.6-3.2-4-6.2-4c-2.8,0-5.1,1.1-7,3.2c-1.9,2.1-3.3,4.7-4.2,7.8c-0.9,3.1-1.4,6-1.4,8.9c0,3.1,0.7,5.9,2,8.5
		c-4.1,0-7.1-1-9.1-2.9c-2-1.9-3-4.4-3-7.5C522.1,179.5,523.3,175.9,525.6,172.3z M498.1,242.8c1.1,0,2.1,0.3,3,1
		c0.9,0.7,1.3,1.7,1.3,3.1c0,0.8-0.3,1.8-0.8,3.1c-0.6,1.3-1.3,2.4-2.3,3.3c-1,1-2.2,1.4-3.6,1.4c-1.9,0-3.3-0.5-4.3-1.5
		c-1-1-1.4-2.1-1.4-3.4c0-1.5,0.9-3,2.8-4.5C494.5,243.5,496.3,242.8,498.1,242.8z M409.6,172.3c2.3-3.6,5.4-6.6,9.2-9
		c3.9-2.4,8-3.6,12.5-3.6c5.8,0,10.2,2.1,13.3,6.4c3.1,4.2,4.6,10.1,4.6,17.7c0,5.8-0.8,11.9-2.3,18.2c-1.6,6.3-3.9,14.4-6.9,24.2
		c-2.4,7.6-4.2,13.5-5.2,17.5c-1,4-1.6,7.6-1.6,10.7c0,1.6,0.2,2.7,0.7,3.4c0.4,0.7,1.3,1,2.5,1c4.9,0,10.9-4.3,18.2-12.9
		s13.6-18.8,19-30.5c5.4-11.8,8.1-22.1,8.1-30.9c0-8.4-2.9-13.6-8.7-15.5c1.1-2.4,2.6-4.3,4.3-5.5c1.7-1.3,3.4-1.9,4.9-1.9
		c1.6,0,3.1,0.7,4.6,2.1c1.5,1.4,2.8,3.4,3.7,5.9c1,2.6,1.4,5.5,1.4,8.9c0,9.2-3.3,20.7-9.9,34.6c-6.6,13.9-14.6,25.9-23.8,36.2
		c-9.2,10.3-17.5,15.4-24.8,15.4c-3,0-5.9-0.9-8.5-2.6c-2.6-1.7-4-4.7-4-9c0-2.4,0.4-5.3,1.3-8.5c0.9-3.3,2.3-7.9,4.2-13.8
		c3.2-9.9,5.7-18.7,7.5-26.4c1.8-7.7,2.7-15.6,2.7-23.7c0-5-0.6-8.9-1.7-11.5c-1.1-2.6-3.2-4-6.2-4c-2.8,0-5.1,1.1-7,3.2
		c-1.9,2.1-3.3,4.7-4.2,7.8c-0.9,3.1-1.4,6-1.4,8.9c0,3.1,0.7,5.9,2,8.5c-4.1,0-7.1-1-9.1-2.9c-2-1.9-3-4.4-3-7.5
		C406.2,179.5,407.3,175.9,409.6,172.3z M307.5,498.6c9.8,15.3,14.7,31.3,14.7,48c0,17.8-5.2,35.1-15.7,51.8
		c-10.5,16.7-24.9,30.4-43.4,41c-18.4,10.6-39.1,15.9-62,15.9c-17.8,0-32.5-3.1-44-9.3c-11.5-6.2-19.9-14.2-25.3-24
		c-5.4-9.8-8.1-19.8-8.1-30c0-12.2,3.3-23.1,10-32.7c6.7-9.6,15.9-14.5,27.8-14.5c4,0,8.9,0.6,14.9,1.7c-5.1,4.3-9.4,10.3-12.8,18.1
		c-3.4,7.8-5.1,15.5-5.1,23.2c0,7.9,2,15.6,6,23c4,7.4,9.4,13.4,16.4,18.1c6.9,4.7,14.8,7,23.6,7c11,0,21.7-3.8,32.1-11.3
		c10.3-7.5,18.8-17.9,25.3-31.2c6.5-13.3,9.8-28.2,9.8-44.6c0-18.1-4.5-34.4-13.4-48.9c-8.9-14.5-23.6-24.4-44-29.8
		c15-6.5,28.3-15.6,40-27.2c11.6-11.6,20.6-24.2,27-37.6c6.4-13.5,9.6-26.1,9.6-38c0-12.8-3.7-22.2-11-28.3
		c-7.4-6.1-16.4-9.1-27.2-9.1c-12.5,0-23.4,3.7-32.9,11.1c-9.5,7.4-14.2,17.1-14.2,29.3c0,9.1,2.8,18.8,8.5,29.3
		c-1.7,3.7-4.6,7.1-8.7,10.2c-4.1,3.1-8.1,4.7-12.1,4.7c-5.9,0-10.8-3.9-14.4-11.7c-3.7-7.8-5.5-16.4-5.5-25.7
		c0-13,4-24.4,12.1-34.2c8.1-9.8,18.6-17.3,31.5-22.5c12.9-5.2,26.6-7.9,41-7.9c12.5,0,24.2,2.3,35.3,7c11.1,4.7,20,11.5,26.8,20.6
		c6.8,9.1,10.2,19.8,10.2,32.3c0,11.6-2.9,23.7-8.7,36.1c-5.8,12.5-13.9,23.8-24.2,34c-10.3,10.2-22,17.7-35.1,22.5
		C282.4,472.1,297.7,483.3,307.5,498.6z M467,799.8c-4.5,4.1-9.6,7.4-15.4,10c-4.1,9.6-8.2,17.2-12.4,22.8
		c-4.2,5.6-8.7,8.4-13.6,8.4c-2.4,0-4.5-0.7-6.2-2.1s-2.6-3.5-2.6-6.3c0-3.4,1.3-6.5,3.8-9.2c2.6-2.8,5.5-5.1,8.9-7
		s7.8-4.1,13.1-6.6c1.5-3.7,3.6-10.5,6.2-20.3c-3.1,4.4-6.2,7.9-9.2,10.4c-3,2.5-6.2,3.8-9.6,3.8c-2.9,0-5.4-0.9-7.7-2.6
		c-2.1-1.6-3.2-4-3.3-7.3c-0.9,1-1.8,1.9-2.7,2.7c-3.2,2.6-7.2,3.8-12.2,3.8c-1.2,0-2.1,0-2.7-0.1c-2.7,4.2-5.9,7.6-9.5,10.2
		c-3.6,2.6-7.7,3.8-12.2,3.8c-4.9,0-8.6-1.5-11.2-4.6c-2.6-3-3.9-7.3-3.9-12.7c0-8.1,2.6-19,7.8-32.7c5.2-13.7,11.1-25.8,17.8-36.4
		c6.7-10.6,11.9-15.9,15.7-15.9c1.6,0,2.9,0.9,3.8,2.7c0.9,1.8,1.4,3.9,1.5,6.2c0,4.2-1.4,9.6-4.3,16.3c-2.9,6.7-6.6,13.2-11.2,19.3
		c-4.6,6.2-9.5,10.7-14.6,13.7c-1.2,2.3-2.5,6-3.8,11.1c-1.3,5.2-2,10.1-2,14.9c0,3.8,0.5,6.9,1.6,9.2c1.1,2.3,2.8,3.4,5.1,3.4
		c2.3,0,4.7-1,7.3-3.1c2.6-2,4.7-4.6,6.4-7.6c-3.1-1.7-5.5-4.1-7.2-7.2c-1.7-3.1-2.5-6.4-2.5-9.9c0-4.2,1.1-7.6,3.4-10.2
		c2.3-2.6,5.1-4,8.5-4c2.9,0,5.3,1.1,7,3.3c1.7,2.2,2.6,5.4,2.6,9.7c0,5.3-1.3,10.7-3.9,16.4l2.3,0.1c4,0,7.3-1.4,9.9-4.2
		c1.4-1.5,2.7-3.2,3.9-5.1c0.3-1.7,0.8-3.5,1.4-5.4c1.4-4.5,3-8.5,4.9-12c1.9-3.4,3.6-5.1,4.9-5.1c0.9,0,2.2,0.5,3.9,1.4
		c1.7,0.9,2.8,1.9,3.1,2.9c-1.6,2.3-3.4,6-5.4,11.3c-2,5.3-2.9,9.4-2.9,12.5c0,3.2,1.3,4.8,3.8,4.8c2.6,0,5.4-1.5,8.5-4.5
		c3-3,5.9-6.8,8.7-11.2c0.2-0.6,0.4-2,0.8-4.3c0.3-2.3,1.1-4.2,2.3-5.9c1.2-1.7,2.9-2.5,5.2-2.5c0.3,0,1.7,0.2,4.2,0.5
		c-0.1,2.2-1.1,6.9-3.1,14.2c-2,7.3-4.2,14.4-6.8,21.3c4.2-1.7,8.3-4.4,12-7.9c3.8-3.6,6.7-8.2,8.9-14l2.2,1.8
		C474.6,790.7,471.5,795.8,467,799.8z M465.8,655.4c-32.3,0-56.2-9.8-71.8-29.5c-15.6-19.7-23.4-46-23.4-78.8
		c0-32.6,7-67.3,21-104.1c14-36.8,33.9-67.8,59.5-92.9c25.6-25.1,54.9-37.6,87.8-37.6c13.6,0,24.6,2.3,32.9,6.8
		c8.4,4.5,12.5,11.3,12.5,20.4c0,5.4-1.8,10.1-5.5,14c-3.7,4-10.3,7.2-20,9.8c0.6-5.7,0.9-10.3,0.9-14c0-6.8-1.6-12-4.7-15.7
		c-3.1-3.7-8.9-5.5-17.4-5.5c-16.7,0-32.4,7.3-47.2,21.9c-14.7,14.6-27.6,33.4-38.7,56.3c-11,23-19.7,47.3-25.9,73.1
		c9.6-7.4,20.6-13,32.9-17c12.3-4,24.9-5.9,37.6-5.9c24.4,0,44.6,7.2,60.8,21.5c16.2,14.3,24.2,35.5,24.2,63.5
		c0,21.3-4.8,40.5-14.5,57.8c-9.6,17.3-23.2,31-40.8,41C508.5,650.4,488.4,655.4,465.8,655.4z M559.3,724.7c-0.1,2.3-1,8.1-2.7,17.2
		c-1.7,9.1-3.9,18.8-6.6,29c-2.7,10.2-5.6,18.8-8.7,25.6c-3.2,7.1-6.7,12.1-10.4,15c-3.7,2.9-7.8,4.4-12.2,4.4
		c-4.4,0-8.2-1.2-11.2-3.7c-3.1-2.5-4.6-7.1-4.6-13.8c0-5.7,1-10.9,2.9-15.5c1.9-4.6,4.5-6.9,7.8-6.9c1.2,0,2.9,0.5,5.1,1.4
		c-3.3,8-4.9,14.9-4.9,20.9c0,3.5,0.7,6.2,2.1,8.2c1.4,2,3.4,3,5.9,3c2.2,0,4.1-1,5.9-2.9c1.7-1.9,3.5-5.2,5.2-9.9
		c2.9-8.4,6.3-20.7,10.1-36.8c3.8-16.1,6.7-29.6,8.6-40.3c-6.1,0.1-11.2,0.4-15.3,0.8c-4.1,0.5-8.3,1.2-12.5,2.1
		c0.6-4.1,2.8-7,6.4-8.7c3.7-1.7,9.3-2.6,17-2.6c4.8,0,9.9,0.3,15.5,0.9c5.5,0.6,10.4,1.3,14.4,2c-1.3,2.1-3,3.5-5.2,4.2
		c-2.2,0.7-4.4,1.1-6.6,1.1l-7.5,0.1C558.7,721.1,559.3,722.8,559.3,724.7z M634,755.8c-6.7,4.5-14,7.5-21.9,9
		c-7.9,1.5-14.6,2.3-20.1,2.3h-0.8l-7.3,26.1c-1.8,6.9-3.9,14.5-6.4,22.7c-2.7,0-5.2-0.7-7.4-2.1c-2.3-1.4-3.4-3.2-3.4-5.3
		c0-1.5,0.6-3.9,1.7-7.3c6.7-20.5,12-36.4,16.1-47.8c4.1-11.4,9.1-23.7,14.9-36.8c-4.4,1-9,2.8-13.6,5.2c-2.1,1-3.3,1.6-3.8,1.6
		c-0.8,0-1.8-0.6-3.1-1.9c-1.3-1.3-1.9-2.3-1.9-3.2c11.6-4.9,21.8-7.3,30.5-7.3c5.7,0,11.4,1,17,3c5.6,2,10.2,4.9,13.8,8.8
		c3.6,3.9,5.5,8.4,5.5,13.7C644,744.9,640.7,751.3,634,755.8z M795.1,621.6c-24.7,22.5-51.8,33.8-81.6,33.8
		c-28.9,0-51-10.8-66.3-32.5c-15.3-21.7-22.9-49.4-22.9-83.1c0-32.3,6.6-66.2,19.8-101.8c13.2-35.6,31.9-65.4,56.1-89.5
		c24.2-24.1,51.8-36.1,82.7-36.1c28,0,50.4,10.3,67.2,31c16.7,20.7,25.1,49.7,25.1,87.1c0,34.9-7.2,69.8-21.5,104.8
		C839.3,570.3,819.8,599.1,795.1,621.6z"/>
	<path class="st0" d="M421.9,832.6c0,1,0.2,1.8,0.6,2.5c0.4,0.7,1,1.1,1.9,1.1c1.8,0,4.2-1.8,7.1-5.5c2.9-3.7,5.9-8.8,8.7-15.3
		c-5,2.5-9.3,5.3-12.9,8.3C423.7,826.8,421.9,829.7,421.9,832.6z"/>
	<path class="st0" d="M626.3,720.7c-4.6-3.2-10.2-4.9-16.8-5.1c-5.2,10.1-10.9,25.9-17.2,47.4c6.9-0.4,13.5-1.8,19.7-4
		c6.2-2.3,11.3-5.5,15.2-9.6c3.9-4.2,5.9-9.1,5.9-15C633.2,728.5,630.9,723.9,626.3,720.7z"/>
	<path class="st0" d="M782.8,329.8c-23.5,0-44.1,12.1-61.6,36.3c-17.6,24.2-31,53.5-40.4,87.8c-9.3,34.3-14,65.3-14,93.1
		c0,26.9,4.7,48.3,14,64.2c9.4,15.9,22.2,23.8,38.7,23.8c20.4,0,39.6-11.8,57.6-35.5c18-23.7,32.4-52.8,43.1-87.5
		c10.8-34.7,16.1-67.4,16.1-98c0-25.8-4.3-46.3-13-61.4C814.7,337.4,801.2,329.8,782.8,329.8z"/>
	<path class="st0" d="M422.8,781.8c-0.9,1.9-1.9,3.6-3,5.2c-0.5,2.2-0.7,4.2-0.7,5.8c0,0.3,0,0.6,0,0.9c2.1-2.4,3.9-5.5,5.6-9.2
		L422.8,781.8z"/>
</g>
</svg>
