<?xml version="1.0" encoding="utf-8"?>
<!-- Generator: Adobe Illustrator 23.0.1, SVG Export Plug-In . SVG Version: 6.00 Build 0)  -->
<svg version="1.1" id="Layer_1" xmlns="http://www.w3.org/2000/svg" xmlns:xlink="http://www.w3.org/1999/xlink" x="0px" y="0px"
	 viewBox="0 0 512 512" style="enable-background:new 0 0 512 512;" xml:space="preserve">
<style type="text/css">
	.st0{fill:#5B4DC4;}
	.st1{fill:#331D82;}
	.st2{fill:#FFFFFF;}
	.st3{font-family:'Caladea-Bold';}
	.st4{font-size:271.8477px;}
	.st5{font-size:562.2603px;}
</style>
<title>360-degree</title>
<path class="st0" d="M512,256C512,113.6,396.4,0,256,0c-45.6,0-89.7,13.3-122.3,31.1l0,0C52.7,75.2,15.9,162.2,15.9,257.8
	c0,141.1,102.1,224.4,243.2,225c122.3,0.6,220-55.2,246.3-168.7C509.8,295,512,275.5,512,256z"/>
<path class="st1" d="M347.2,367.8C205.8,367,91.7,251.8,92.5,110.3c0.1-19,2.3-38,6.6-56.6C-12.6,140.5-32.9,301.3,53.8,413
	c48.2,62.1,122.3,98.6,201,99c122.3,0.6,224.2-84.4,250.6-198C460.2,349.2,404.5,368.1,347.2,367.8z"/>
<text transform="matrix(-5.064313e-03 -0.9616 1 -5.411963e-03 472.6978 255.1865)" class="st2 st3 st4">D</text>
<text transform="matrix(0.9863 -1.737297e-02 1.713786e-02 0.9999 8.0003 451.2894)" class="st2 st3 st5">3</text>
<text transform="matrix(5.294192e-03 1.0052 1 -5.411963e-03 472.6978 255.1855)" class="st2 st3 st4">D</text>
</svg>
