<?xml version="1.0" encoding="utf-8"?>
<!-- Generator: Adobe Illustrator 23.0.1, SVG Export Plug-In . SVG Version: 6.00 Build 0)  -->
<svg version="1.1" id="Layer_1" xmlns="http://www.w3.org/2000/svg" xmlns:xlink="http://www.w3.org/1999/xlink" x="0px" y="0px"
	 viewBox="0 0 1080 1080" style="enable-background:new 0 0 1080 1080;" xml:space="preserve">
<style type="text/css">
	.st0{fill:none;stroke:#3F3F3F;stroke-width:16;stroke-linejoin:round;}
</style>
<g id="RenderLayer_LineSet" inkscape:groupmode="lineset" inkscape:label="RenderLayer_LineSet" xmlns:inkscape="http://www.inkscape.org/namespaces/inkscape">
	
		<g id="strokes" inkscape:groupmode="layer" inkscape:label="strokes" xmlns:inkscape="http://www.inkscape.org/namespaces/inkscape">
		<path class="st0" d="M493.2,979.6L385.4,818.2L277.1,691.9L331,587.7v-8.4l-88-163.1l168.9,96.9l-25.7-132.7l-61.3-65.7
			l-18.8-27.1l-17.4-41l86.7,70.9l-6.1-105.4l3.2-40l4.4-20.7l20.4-48.1l29.9-37l-15.4,75.5v89l56.6,193.8l38.2,58.9l12.9,7.1
			l21.2,4.3l22.9-5.1l11.2-6.3l38.2-58.9l56.6-193.8v-39v-50l-15.4-75.5l29.9,37l20.6,49.2l4.2,19.6l3.3,41.5l-1.4,23.9l-4.8,80
			l86.7-70.9l-17.4,41l-18.8,27.1l-61.3,65.7l-25.7,132.7l168.9-96.9l-88.2,163v8.4l53.9,104.2L694.4,819.4L584.8,982.6l-7.7,9.8
			l-8,8.1l-7,5.1l-11.8,5.5l-10.4,1.3l-12.8-2.5l-9.4-4.3l-8.7-6.8l-8-8.1L493.2,979.6z"/>
	</g>
</g>
</svg>
